<?xml version="1.0" encoding="UTF-8" standalone="no"?>
<!DOCTYPE svg PUBLIC "-//W3C//DTD SVG 1.1//EN" "http://www.w3.org/Graphics/SVG/1.1/DTD/svg11.dtd">
<svg width="100%" height="100%" viewBox="0 0 890 207" version="1.1" xmlns="http://www.w3.org/2000/svg" xmlns:xlink="http://www.w3.org/1999/xlink" xml:space="preserve" xmlns:serif="http://www.serif.com/" style="fill-rule:evenodd;clip-rule:evenodd;stroke-linejoin:round;stroke-miterlimit:2;">
    <g transform="matrix(1,0,0,1,-122.065,-480.087)">
        <g id="Layer_x0020_1" transform="matrix(1,0,0,1,-248.896,-122.82)">
            <g transform="matrix(1.25878,0,0,1.25878,-1.09223,-178.243)">
                <g id="_1927307561520" transform="matrix(0.377026,0,0,0.377026,184.13,489.028)">
                    <path d="M734.981,616.353C738.997,579.6 729.344,542.615 747.027,506.093C672.3,526.725 753.729,679.016 573.066,690.709L573.297,784.989L584.445,784.312C585.151,739.96 600.079,711.976 633.523,705.305C675.624,697.706 712.185,681.246 741.931,653.88C778.221,622.069 793.894,563.155 838.292,541.767C792.274,537.443 769.418,591.491 734.981,616.353Z" style="fill:rgb(41,41,100);"/>
                    <path d="M398.877,616.353C394.862,579.6 404.514,542.615 386.832,506.093C461.558,526.725 380.13,679.016 560.792,690.709L560.561,784.989L549.413,784.312C548.707,739.96 533.779,711.976 500.336,705.305C458.235,697.706 421.673,681.246 391.928,653.88C355.638,622.069 339.964,563.155 295.566,541.767C341.584,537.443 364.44,591.491 398.877,616.353Z" style="fill:rgb(41,41,100);"/>
                </g>
                <g transform="matrix(0.377026,0,0,0.377026,184.13,489.028)">
                    <path d="M571.063,348.869C598.114,348.869 620.045,370.12 620.045,396.333C620.045,396.587 620.039,396.839 620.035,397.093C615.198,375.809 595.621,359.882 572.202,359.882C545.412,359.882 523.648,380.723 523.229,406.585C522.479,403.283 522.08,399.854 522.08,396.333C522.08,370.12 544.01,348.869 571.063,348.869Z" style="fill:rgb(41,41,100);"/>
                </g>
                <g transform="matrix(0.377026,0,0,0.377026,184.13,489.028)">
                    <path d="M572.216,458.103C594.048,459.507 610.196,484.765 608.282,514.518C608.264,514.807 608.241,515.093 608.219,515.38C605.869,490.97 591.232,471.876 572.332,470.661C550.712,469.27 531.626,491.797 529.4,521.129C529.035,517.343 528.964,513.429 529.221,509.433C531.134,479.68 550.384,456.698 572.216,458.103Z" style="fill:rgb(41,41,100);"/>
                </g>
                <g transform="matrix(0.377026,0,0,0.377026,184.13,489.028)">
                    <path d="M655.211,413.085C675.242,431.033 674.168,469.268 652.811,498.484C652.603,498.768 652.394,499.045 652.184,499.325C665.944,472.393 664.424,441.653 647.083,426.114C627.246,408.34 594.151,417.129 572.769,445.676C574.904,441.498 577.403,437.411 580.271,433.487C601.628,404.271 635.18,395.137 655.211,413.085Z" style="fill:rgb(41,41,100);"/>
                </g>
                <g transform="matrix(0.377026,0,0,0.377026,184.13,489.028)">
                    <path d="M478.925,413.085C458.894,431.033 459.969,469.268 481.326,498.484C481.533,498.768 481.743,499.045 481.952,499.325C468.192,472.393 469.712,441.653 487.053,426.114C506.89,408.34 539.986,417.129 561.367,445.676C559.233,441.498 556.734,437.411 553.865,433.487C532.508,404.271 498.956,395.137 478.925,413.085Z" style="fill:rgb(41,41,100);"/>
                </g>
                <g transform="matrix(0.377026,0,0,0.377026,184.13,489.028)">
                    <path d="M503.801,523.861C502.265,509.803 505.957,495.656 499.194,481.687C527.776,489.578 496.63,547.829 565.733,552.302L565.645,588.363L561.381,588.105C561.11,571.14 555.401,560.436 542.609,557.884C526.505,554.978 512.521,548.682 501.143,538.215C487.262,526.047 481.267,503.513 464.285,495.332C481.887,493.678 490.629,514.351 503.801,523.861Z" style="fill:rgb(18,138,101);"/>
                </g>
                <g transform="matrix(0.377026,0,0,0.377026,184.13,489.028)">
                    <path d="M630.057,523.861C631.593,509.803 627.901,495.656 634.664,481.687C606.082,489.578 637.228,547.829 568.125,552.302L568.214,588.363L572.478,588.105C572.748,571.14 578.458,560.436 591.25,557.884C607.353,554.978 621.338,548.682 632.715,538.215C646.596,526.047 652.591,503.513 669.573,495.332C651.971,493.678 643.229,514.351 630.057,523.861Z" style="fill:rgb(18,138,101);"/>
                </g>
                <g transform="matrix(0.377026,0,0,0.377026,184.13,489.028)">
                    <path d="M621.378,592.714C647.31,562.164 659.33,531.436 663.372,503.768C668.339,538.916 663.572,574.461 643.816,599.338C636.197,597.66 628.718,595.456 621.378,592.714Z" style="fill:rgb(212,139,4);"/>
                </g>
                <g transform="matrix(0.377026,0,0,0.377026,184.13,489.028)">
                    <path d="M659.343,655.886C662,633.273 656.329,617.049 646.916,603.697C668.942,575.338 669.984,542.246 666.472,508.126C697.994,550.502 717.153,624.597 659.343,655.886Z" style="fill:rgb(245,171,29);"/>
                </g>
                <g transform="matrix(0.377026,0,0,0.377026,184.13,489.028)">
                    <path d="M584.053,571.836C597.197,611.882 619.834,641.23 655.751,655.615C657.653,634.872 654.027,617.19 643.323,603.426C617.919,597.042 594.66,589.084 584.053,571.836Z" style="fill:rgb(247,192,91);"/>
                </g>
                <g transform="matrix(0.377026,0,0,0.377026,184.13,489.028)">
                    <path d="M604.259,652.921C586.006,621.352 582.25,596.881 582.863,574.548C595.096,612.632 616.686,642.569 654.561,658.327C638.824,661.353 622.428,661.288 604.259,652.921Z" style="fill:rgb(219,163,59);"/>
                </g>
                <g transform="matrix(0.377026,0,0,0.377026,184.13,489.028)">
                    <path d="M512.481,592.714C486.548,562.164 474.528,531.437 470.487,503.768C465.519,538.917 470.286,574.462 490.042,599.338C497.661,597.66 505.14,595.456 512.481,592.714Z" style="fill:rgb(212,139,4);"/>
                </g>
                <g transform="matrix(0.377026,0,0,0.377026,184.13,489.028)">
                    <path d="M474.515,655.886C471.859,633.273 477.53,617.049 486.942,603.697C464.916,575.338 463.874,542.246 467.386,508.127C435.864,550.502 416.705,624.597 474.515,655.886Z" style="fill:rgb(245,171,29);"/>
                </g>
                <g transform="matrix(0.377026,0,0,0.377026,184.13,489.028)">
                    <path d="M549.805,571.836C536.662,611.882 514.025,641.23 478.107,655.615C476.205,634.873 479.832,617.19 490.535,603.426C515.939,597.042 539.198,589.084 549.805,571.836Z" style="fill:rgb(247,192,91);"/>
                </g>
                <g transform="matrix(0.377026,0,0,0.377026,184.13,489.028)">
                    <path d="M529.599,652.921C547.852,621.353 551.609,596.881 550.995,574.549C538.762,612.632 517.172,642.569 479.297,658.327C495.034,661.354 511.43,661.288 529.599,652.921Z" style="fill:rgb(219,163,59);"/>
                </g>
            </g>
            <g transform="matrix(1.12917,0,0,1.12917,71.3226,-95.2248)">
                <g transform="matrix(1,0,0,1,555.01,735.271)">
                    <text x="0px" y="0px" style="font-family:'CanelaText-Regular', 'Canela Text';font-size:100px;fill:rgb(209,145,27);">e<tspan x="52.9px " y="0px ">-</tspan></text>
                </g>
                <g transform="matrix(1,0,0,1,641.71,738.821)">
                    <text x="0px" y="0px" style="font-family:'CanelaText-Regular', 'Canela Text';font-size:100px;fill:rgb(41,41,100);">s<tspan x="45px 95.4px 120.7px 174.3px 233.3px 269.1px 320.5px 358.1px " y="0px 0px 0px 0px 0px 0px 0px 0px ">ejahtera</tspan></text>
                </g>
            </g>
        </g>
    </g>
</svg>
